<?xml version="1.0" encoding="utf-8"?>
<!-- Generator: Adobe Illustrator 16.0.4, SVG Export Plug-In . SVG Version: 6.00 Build 0)  -->
<!DOCTYPE svg PUBLIC "-//W3C//DTD SVG 1.1//EN" "http://www.w3.org/Graphics/SVG/1.1/DTD/svg11.dtd">
<svg version="1.1" id="Ebene_1" xmlns="http://www.w3.org/2000/svg" xmlns:xlink="http://www.w3.org/1999/xlink" x="0px" y="0px"
	 width="72px" height="72px" viewBox="0 0 72 72" enable-background="new 0 0 72 72" xml:space="preserve">
<g id="Your_Icon">
	<g>
		<path fill="#ffffff" d="M65.104,4.508H6.896c-1.735,0-3.146,1.412-3.146,3.146v55.062c0,1.735,1.411,3.146,3.146,3.146h58.208
			c1.734,0,3.146-1.409,3.146-3.146V7.654C68.25,5.92,66.839,4.508,65.104,4.508z M23.47,7.654c1.303,0,2.359,1.057,2.359,2.36
			c0,1.303-1.057,2.359-2.359,2.359c-1.302,0-2.359-1.056-2.359-2.359C21.111,8.711,22.168,7.654,23.47,7.654z M16.391,7.654
			c1.303,0,2.36,1.057,2.36,2.36c0,1.303-1.058,2.359-2.36,2.359c-1.302,0-2.36-1.056-2.36-2.359
			C14.031,8.711,15.089,7.654,16.391,7.654z M9.312,7.654c1.303,0,2.359,1.057,2.359,2.36c0,1.303-1.057,2.359-2.359,2.359
			c-1.302,0-2.359-1.056-2.359-2.359C6.953,8.711,8.009,7.654,9.312,7.654z M65.377,63.102H6.545V15.521h58.836L65.377,63.102z"/>
		
			<line fill="none" stroke="#ffffff" stroke-width="2.6172" stroke-linecap="round" stroke-linejoin="round" stroke-miterlimit="10" x1="35.427" y1="24.173" x2="11.829" y2="24.173"/>
		
			<line fill="none" stroke="#ffffff" stroke-width="2.6172" stroke-linecap="round" stroke-linejoin="round" stroke-miterlimit="10" x1="35.427" y1="38.332" x2="11.829" y2="38.332"/>
		
			<line fill="none" stroke="#ffffff" stroke-width="2.6172" stroke-linecap="round" stroke-linejoin="round" stroke-miterlimit="10" x1="42.506" y1="31.252" x2="11.829" y2="31.252"/>
	</g>
</g>
</svg>
