<?xml version="1.0" encoding="utf-8"?>
<!-- Generator: Adobe Illustrator 16.0.4, SVG Export Plug-In . SVG Version: 6.00 Build 0)  -->
<!DOCTYPE svg PUBLIC "-//W3C//DTD SVG 1.1//EN" "http://www.w3.org/Graphics/SVG/1.1/DTD/svg11.dtd">
<svg version="1.1" id="Ebene_1" xmlns="http://www.w3.org/2000/svg" xmlns:xlink="http://www.w3.org/1999/xlink" x="0px" y="0px"
	 width="72px" height="72px" viewBox="0 0 72 72" enable-background="new 0 0 72 72" xml:space="preserve">
<g>
	<g>
		<path fill="#38BADD" d="M61.65,55.239H10.776c-2.238,0-4.059-1.82-4.059-4.06V15.348c0-2.238,1.821-4.059,4.059-4.059H61.65
			c2.238,0,4.06,1.821,4.06,4.059v35.833C65.71,53.419,63.891,55.239,61.65,55.239z M10.776,13.907
			c-0.795,0-1.441,0.646-1.441,1.441v35.833c0,0.795,0.646,1.44,1.441,1.44H61.65c0.795,0,1.441-0.646,1.441-1.44V15.348
			c0-0.795-0.646-1.441-1.441-1.441H10.776z"/>
	</g>
	<g>
		<path fill="#38BADD" d="M63.093,46.016v11.166c0,0.795-0.646,1.44-1.44,1.44H10.776c-0.795,0-1.441-0.646-1.441-1.44V46.016
			c-0.874,0-1.743,0-2.617,0v11.166c0,2.237,1.821,4.059,4.059,4.059h50.875c2.238,0,4.059-1.82,4.059-4.059V46.016
			C64.838,46.016,63.962,46.016,63.093,46.016z"/>
	</g>
</g>
<circle fill="none" stroke="#38BADD" stroke-width="3" stroke-linecap="round" stroke-linejoin="round" stroke-miterlimit="10" cx="36.214" cy="45.625" r="3.536"/>
<path fill="none" stroke="#38BADD" stroke-width="3" stroke-linecap="round" stroke-linejoin="round" stroke-miterlimit="10" d="
	M32.678,60.417c0,3.25-3.344,5.333-3.344,5.333h13.583c0,0-3.167-1.833-3.167-5.333"/>
</svg>
