<?xml version="1.0" encoding="utf-8"?>
<!-- Generator: Adobe Illustrator 16.0.4, SVG Export Plug-In . SVG Version: 6.00 Build 0)  -->
<!DOCTYPE svg PUBLIC "-//W3C//DTD SVG 1.1//EN" "http://www.w3.org/Graphics/SVG/1.1/DTD/svg11.dtd">
<svg version="1.1" id="Ebene_1" xmlns="http://www.w3.org/2000/svg" xmlns:xlink="http://www.w3.org/1999/xlink" x="0px" y="0px"
	 width="112px" height="112px" viewBox="0 0 112 112" enable-background="new 0 0 112 112" xml:space="preserve">
<g>
	<g>
		<g>
			<g>
				<g>
					<g>
						<g>
							<path fill="none" stroke="#FFFFFF" stroke-width="4" stroke-miterlimit="10" d="M21.766,90.371v-66h-6c-2.209,0-4,1.791-4,4
								v72c0,2.209,1.791,4,4,4h58c2.209,0,4-1.791,4-4v-6h-52C23.557,94.371,21.766,92.58,21.766,90.371z"/>
							<path fill="none" stroke="#FFFFFF" stroke-width="4" stroke-miterlimit="10" d="M77.766,94.371h6c2.209,0,4-1.791,4-4v-6h-10
								"/>
							<path fill="none" stroke="#FFFFFF" stroke-width="4" stroke-miterlimit="10" d="M31.766,24.372v-10h-6c-2.209,0-4,1.791-4,4
								v6"/>
							<path fill="none" stroke="#FFFFFF" stroke-width="4" stroke-miterlimit="10" d="M87.766,84.371h6c2.209,0,4-1.791,4-4v-72
								c0-2.209-1.791-4-4-4h-58c-2.209,0-4,1.791-4,4v6"/>
							
								<line fill="none" stroke="#FFFFFF" stroke-width="4" stroke-miterlimit="10" x1="77.766" y1="84.371" x2="87.766" y2="84.371"/>
							<path fill="none" stroke="#FFFFFF" stroke-width="4" stroke-miterlimit="10" d="M31.766,24.372v56c0,2.209,1.791,4,4,4h42"/>
						</g>
						
							<polyline fill="none" stroke="#38BADD" stroke-width="4" stroke-linecap="round" stroke-linejoin="round" stroke-miterlimit="10" points="
							51.938,67.18 41.037,56.279 51.938,45.377 						"/>
						
							<polyline fill="none" stroke="#38BADD" stroke-width="4" stroke-linecap="round" stroke-linejoin="round" stroke-miterlimit="10" points="
							77.923,45.378 88.824,56.279 77.923,67.18 						"/>
						
							<line fill="none" stroke="#38BADD" stroke-width="4" stroke-linecap="round" stroke-linejoin="round" stroke-miterlimit="10" x1="70.616" y1="40.101" x2="57.508" y2="73.039"/>
					</g>
				</g>
			</g>
		</g>
	</g>
</g>
</svg>
