<?xml version="1.0" encoding="utf-8"?>
<!-- Generator: Adobe Illustrator 16.0.4, SVG Export Plug-In . SVG Version: 6.00 Build 0)  -->
<!DOCTYPE svg PUBLIC "-//W3C//DTD SVG 1.1//EN" "http://www.w3.org/Graphics/SVG/1.1/DTD/svg11.dtd">
<svg version="1.1" id="Ebene_1" xmlns="http://www.w3.org/2000/svg" xmlns:xlink="http://www.w3.org/1999/xlink" x="0px" y="0px"
	 width="72px" height="72px" viewBox="0 0 72 72" enable-background="new 0 0 72 72" xml:space="preserve">
<g>
	<g>
		<g>
			<g>
				<path fill="none" stroke="#38BADD" stroke-width="2.6172" stroke-miterlimit="10" d="M14.021,58.738V15.555h-3.927
					c-1.444,0-2.617,1.172-2.617,2.617v47.109c0,1.443,1.173,2.617,2.617,2.617h37.95c1.444,0,2.616-1.174,2.616-2.617v-3.926
					H16.639C15.193,61.355,14.021,60.184,14.021,58.738z"/>
				<path fill="none" stroke="#38BADD" stroke-width="2.6172" stroke-miterlimit="10" d="M50.662,61.355h3.927
					c1.445,0,2.617-1.174,2.617-2.617v-3.928h-6.544"/>
				<path fill="none" stroke="#38BADD" stroke-width="2.6172" stroke-miterlimit="10" d="M20.565,15.555V9.011h-3.928
					c-1.444,0-2.616,1.172-2.616,2.617v3.927"/>
				<path fill="none" stroke="#38BADD" stroke-width="2.6172" stroke-miterlimit="10" d="M57.206,54.812h3.926
					c1.445,0,2.617-1.172,2.617-2.617V5.085c0-1.445-1.172-2.617-2.617-2.617H23.183c-1.444,0-2.616,1.172-2.616,2.617v3.926"/>
				
					<line fill="none" stroke="#38BADD" stroke-width="2.6172" stroke-miterlimit="10" x1="20.565" y1="9.011" x2="20.565" y2="15.555"/>
				
					<line fill="none" stroke="#38BADD" stroke-width="2.6172" stroke-miterlimit="10" x1="50.662" y1="54.812" x2="57.206" y2="54.812"/>
				<path fill="none" stroke="#38BADD" stroke-width="2.6172" stroke-miterlimit="10" d="M20.565,15.555v36.642
					c0,1.443,1.172,2.617,2.616,2.617H50.66"/>
			</g>
			
				<polyline fill="none" stroke="#38BADD" stroke-width="2.6172" stroke-linecap="round" stroke-linejoin="round" stroke-miterlimit="10" points="
				33.764,43.562 26.632,36.431 33.764,29.298 			"/>
			
				<polyline fill="none" stroke="#38BADD" stroke-width="2.6172" stroke-linecap="round" stroke-linejoin="round" stroke-miterlimit="10" points="
				50.766,29.299 57.898,36.431 50.766,43.564 			"/>
			
				<line fill="none" stroke="#38BADD" stroke-width="2.6172" stroke-linecap="round" stroke-linejoin="round" stroke-miterlimit="10" x1="45.984" y1="25.846" x2="37.408" y2="47.398"/>
		</g>
	</g>
</g>
</svg>
