<?xml version="1.0" encoding="utf-8"?>
<!-- Generator: Adobe Illustrator 16.0.4, SVG Export Plug-In . SVG Version: 6.00 Build 0)  -->
<!DOCTYPE svg PUBLIC "-//W3C//DTD SVG 1.1//EN" "http://www.w3.org/Graphics/SVG/1.1/DTD/svg11.dtd">
<svg version="1.1" id="Ebene_1" xmlns="http://www.w3.org/2000/svg" xmlns:xlink="http://www.w3.org/1999/xlink" x="0px" y="0px"
	 width="72px" height="72px" viewBox="0 0 72 72" enable-background="new 0 0 72 72" xml:space="preserve">
<g>
	<g>
		
			<path fill="none" stroke="#38BADD" stroke-width="4.0152" stroke-linecap="round" stroke-linejoin="round" stroke-miterlimit="10" d="
			M24,40.477h-5.621L9.92,51.5L9.909,40.477H5.675c-1.892,0-3.175-1.158-3.175-3.049V6.201C2.5,4.309,3.783,2.5,5.675,2.5H39.5
			c1.891,0,3,1.809,3,3.701V11"/>
		
			<path fill="none" stroke="#38BADD" stroke-width="4.0152" stroke-linecap="round" stroke-linejoin="round" stroke-miterlimit="10" d="
			M69.5,53.84c0,1.891-1.283,2.637-3.176,2.637h-7.488L58.939,67.5l-9.312-11.023H34.5c-1.892,0-3-0.746-3-2.637V22.326
			c0-1.894,1.108-3.826,3-3.826h31.824c1.893,0,3.176,1.934,3.176,3.826V53.84z"/>
	</g>
	<path fill="#38BADD" d="M18.924,27.22c0.012-1.693,0.157-2.868,0.438-3.521c0.278-0.654,1.016-1.521,2.207-2.595
		c1.156-1.366,1.979-2.418,2.472-3.153c0.492-0.736,0.735-1.624,0.735-2.664c0-1.238-0.33-2.19-0.989-2.856
		c-0.66-0.666-1.604-0.999-2.831-0.999c-1.062,0-1.969,0.289-2.716,0.867c-0.747,0.579-1.122,1.429-1.122,2.55h-3.295l-0.052-0.104
		c-0.035-1.881,0.628-3.388,1.988-4.521c1.361-1.133,3.093-1.699,5.195-1.699c2.303,0,4.09,0.587,5.363,1.761
		c1.272,1.174,1.909,2.812,1.909,4.916c0,1.507-0.411,2.887-1.234,4.137c-0.823,1.25-1.913,2.529-3.27,3.838
		c-0.631,0.631-1.014,1.197-1.147,1.699c-0.133,0.502-0.201,1.285-0.201,2.349h-3.451L18.924,27.22L18.924,27.22z M22.499,34.404
		h-3.61V30.76h3.61V34.404z"/>
	<path fill="#38BADD" d="M52.218,42.5h-3.452V25.361h3.452V42.5z M52.234,49.5h-3.471v-3.574h3.471V49.5z"/>
</g>
</svg>
