<?xml version="1.0" encoding="utf-8"?>
<!-- Generator: Adobe Illustrator 16.0.4, SVG Export Plug-In . SVG Version: 6.00 Build 0)  -->
<!DOCTYPE svg PUBLIC "-//W3C//DTD SVG 1.1//EN" "http://www.w3.org/Graphics/SVG/1.1/DTD/svg11.dtd">
<svg version="1.1" id="Ebene_1" xmlns="http://www.w3.org/2000/svg" xmlns:xlink="http://www.w3.org/1999/xlink" x="0px" y="0px"
	 width="420px" height="80px" viewBox="0 0 420 80" enable-background="new 0 0 420 80" xml:space="preserve">
<g>
	<g>
		<path fill="#38BADD" d="M60.671,21.658L41.284,10.285L31.13,3.468c-1.143-0.811-2.729-0.542-3.537,0.604L2.995,38.775
			c-0.811,1.142-0.537,2.727,0.605,3.537l7.232,5.651c0.816,0.58,1.859,0.6,2.686,0.146l19.789-27.927
			c0.537-0.757,0.357-1.813-0.402-2.353l-3.408-2.418c-0.846-0.594-1.045-1.758-0.447-2.604c0.594-0.836,1.76-1.035,2.602-0.441
			l3.41,2.42c2.443,1.729,3.02,5.115,1.291,7.557L18.437,47.629l14.992,12.475c1.143,0.812,2.195,0.359,3.539-0.604
			c0,0,4.523-3.186,13.664-16.081c9.137-12.893,10.646-18.221,10.646-18.221l0,0C61.585,23.738,61.815,22.47,60.671,21.658z"/>
		<path fill="#E81C5B" d="M53.731,45.515c-3.512,4.954-6.359,8.515-8.564,11.044l4.004,2.839l0.127,0.087
			c1.025,0.729,2.555,0.467,3.26-0.282c0.094-0.102,2.211-2.38,7.199-9.419c4.988-7.038,6.418-9.798,6.504-9.916
			c0.682-0.963,0.209-2.443-0.818-3.166l-0.125-0.09l-4.004-2.838C59.655,36.693,57.243,40.562,53.731,45.515z"/>
		<path fill="#38BADD" d="M62.714,51.938c-1.912,2.7-3.41,4.707-4.545,6.186c2.523,1.444,10.652,5.526,14.137,0.614
			c3.484-4.916-3.072-11.24-5.27-13.14C65.604,47.807,64.011,50.112,62.714,51.938z"/>
		<path fill="#88D6EB" d="M21.382,46.043c0,0,13.16,10.085,13.457,10.341c0.297,0.251,1.197,0.495,1.764,0.16
			c0.564-0.337,1.938-1.814,1.938-1.814c-0.473,0.318-1.408,0.06-1.754-0.178c-0.35-0.239-13.711-10.903-13.711-10.903
			L21.382,46.043z"/>
		<path fill="#88D6EB" d="M5.489,38.567c-0.266,0.373,0.633,1.817,3.768,4.039c3.137,2.221,3.85,2.63,4.174,2.173
			c0.326-0.453,1.557-2.189,1.557-2.189s-0.646,0.139-4.113-2.321c-3.471-2.456-3.859-3.854-3.859-3.854S5.755,38.194,5.489,38.567z
			"/>
		<path fill="#88D6EB" d="M61.187,57.094c0,0,3.557,2.141,6.869,1.673c-3.699-2.216-5.557-3.425-5.557-3.425L61.187,57.094z"/>
		<path fill="#F1779D" d="M48.021,55.398c0,0,0.918-1.089,1.457-1.854c0,0,2.41,1.729,2.986,2.133
			c0.449,0.318,0.855,0.375,0.855,0.375c-0.721,1.037-1.436,1.805-1.436,1.805s-0.248,0.068-0.982-0.451
			C50.165,56.885,48.021,55.398,48.021,55.398z"/>
	</g>
	<g>
		<g>
			<g>
				<path fill="#E81C5B" d="M118.562,26.763c-0.832-0.337-1.83-0.282-2.992,0.169c-1.408,0.76-2.6,1.639-3.584,2.629
					c-1.045-0.9-2.307-1.639-3.816-2.188c-1.764-0.64-3.859-0.959-6.283-0.959c-2.6,0-4.859,0.454-6.779,1.358
					c-1.916,0.903-3.514,2.092-4.791,3.569c-1.281,1.478-2.238,3.183-2.877,5.124c-0.639,1.939-0.959,3.944-0.959,6.019v3.9
					c0,4.497,1.125,8.033,3.371,10.614c2.248,2.576,5.445,3.865,9.588,3.865c2.203,0,3.98-0.375,5.324-1.123
					c1.346-0.749,2.367-1.721,3.076-2.908l0.262,0.134v3.239c0,1.543-0.174,2.785-0.525,3.732c-0.355,0.948-0.842,1.699-1.457,2.249
					c-0.617,0.55-1.346,0.926-2.182,1.124c-0.838,0.199-1.764,0.297-2.779,0.297c-1.629,0-2.896-0.088-3.801-0.265
					c-0.904-0.176-1.598-0.262-2.084-0.262c-1.236,0-2.145,0.287-2.742,0.86c-0.596,0.57-0.891,1.345-0.891,2.312
					c0,1.326,0.727,2.447,2.18,3.373c0.57,0.221,1.518,0.419,2.844,0.596c1.322,0.175,2.82,0.263,4.494,0.263
					c1.941,0,3.791-0.283,5.555-0.858c1.762-0.574,3.318-1.443,4.664-2.611c1.344-1.17,2.412-2.646,3.207-4.429
					c0.795-1.788,1.189-3.915,1.189-6.381V40.197c0.008-1.527,0.164-2.971,0.467-4.328c0.314-1.391,1.08-2.462,2.287-3.227
					c1.029-0.58,1.67-1.287,1.912-2.117c0.25-0.828,0.207-1.574-0.137-2.249C119.974,27.604,119.386,27.101,118.562,26.763z
					 M105.95,52.037c-1.344,1.08-2.941,1.621-4.793,1.621c-4.584,0-6.875-2.337-6.875-7.009v-4.432c0-1.19,0.186-2.302,0.562-3.336
					c0.369-1.039,0.893-1.943,1.553-2.716c0.662-0.768,1.457-1.387,2.379-1.85c0.928-0.46,1.961-0.693,3.109-0.693
					c1.984,0,3.518,0.419,4.596,1.255c1.08,0.838,1.619,2.115,1.619,3.836v0.582c-0.035,0.526-0.057,1.062-0.057,1.614
					c0,0.303,0.018,0.577,0.057,0.833v5.235C108.011,49.271,107.296,50.958,105.95,52.037z"/>
			</g>
			<g>
				<path fill="#E81C5B" d="M129.659,15.237c-1.191,0-2.15,0.323-2.879,0.961c-0.729,0.64-1.094,1.355-1.094,2.15v39.41
					c0,0.792,0.365,1.511,1.094,2.146c0.729,0.64,1.688,0.96,2.879,0.96c1.146,0,2.055-0.32,2.744-0.96
					c0.684-0.635,1.023-1.354,1.023-2.146v-39.41c0-0.795-0.34-1.511-1.023-2.15C131.714,15.561,130.806,15.237,129.659,15.237z"/>
			</g>
			<g>
				<path fill="#E81C5B" d="M168.737,26.545c-1.148,0-2.074,0.323-2.777,0.958c-0.707,0.643-1.057,1.358-1.057,2.15v16.93
					c0,2.424-0.654,4.209-1.951,5.355c-1.305,1.146-2.945,1.72-4.93,1.72s-3.635-0.573-4.957-1.72s-1.982-2.932-1.982-5.355v-16.93
					c0-0.792-0.346-1.508-1.027-2.15c-0.682-0.635-1.6-0.958-2.742-0.958c-1.193,0-2.15,0.323-2.875,0.958
					c-0.729,0.643-1.092,1.358-1.092,2.15v16.664c0,2.073,0.305,4.002,0.926,5.784c0.617,1.789,1.543,3.332,2.775,4.631
					c1.232,1.301,2.766,2.313,4.594,3.046c1.83,0.725,3.957,1.086,6.381,1.086c2.426,0,4.551-0.361,6.381-1.086
					c1.832-0.732,3.365-1.745,4.598-3.046c1.232-1.299,2.16-2.842,2.777-4.631c0.617-1.782,0.926-3.711,0.926-5.784V29.653
					c0-0.792-0.373-1.508-1.125-2.15C170.829,26.868,169.884,26.545,168.737,26.545z"/>
			</g>
			<g>
				<path fill="#E81C5B" d="M204.179,45.525c1.85,0,3.172-0.418,3.967-1.256c0.795-0.836,1.189-2.294,1.189-4.366
					c0-1.54-0.262-3.108-0.793-4.695c-0.527-1.585-1.354-3.028-2.479-4.332c-1.125-1.301-2.568-2.354-4.332-3.171
					c-1.764-0.814-3.898-1.225-6.414-1.225c-2.113,0-4.057,0.375-5.818,1.124c-1.766,0.751-3.285,1.764-4.561,3.041
					c-1.279,1.281-2.281,2.776-3.01,4.499c-0.729,1.718-1.094,3.548-1.094,5.486v7.012c0,1.805,0.379,3.518,1.129,5.12
					c0.748,1.61,1.795,3.012,3.139,4.204c1.344,1.188,2.941,2.137,4.795,2.839c1.85,0.706,3.9,1.059,6.148,1.059
					c1.629,0,3.162-0.187,4.598-0.563c1.43-0.373,2.676-0.843,3.734-1.418c1.057-0.571,1.893-1.214,2.514-1.916
					c0.615-0.707,0.926-1.413,0.926-2.118c-0.045-0.836-0.311-1.52-0.797-2.052c-0.484-0.529-1.168-0.791-2.047-0.791
					c-0.488,0-1.016,0.153-1.588,0.463c-0.574,0.311-1.17,0.616-1.785,0.927c-0.572,0.263-1.357,0.473-2.348,0.626
					c-0.992,0.154-2.084,0.233-3.273,0.233c-2.379,0-4.223-0.643-5.52-1.921c-1.303-1.277-1.953-2.974-1.953-5.091v-1.718H204.179z
					 M190.524,34.779c1.164-1.258,2.744-1.884,4.727-1.884s3.605,0.526,4.861,1.588c1.256,1.056,1.885,2.487,1.885,4.299v0.99
					h-13.49C188.685,37.7,189.354,36.035,190.524,34.779z"/>
			</g>
		</g>
		<path fill="#E81C5B" d="M217.177,55.089c0-0.834,0.383-1.585,1.152-2.246c0.77-0.657,1.814-0.986,3.133-0.986
			c1.188,0,2.166,0.329,2.936,0.986c0.771,0.661,1.156,1.412,1.156,2.246v1.648c0,0.836-0.385,1.583-1.156,2.241
			c-0.77,0.661-1.748,0.99-2.936,0.99c-1.318,0-2.363-0.329-3.133-0.99c-0.77-0.658-1.152-1.405-1.152-2.241V55.089z"/>
		<path fill="#38BADD" d="M235.667,26.321v-6.794c0-0.792,0.352-1.508,1.055-2.146c0.701-0.636,1.674-0.955,2.904-0.955
			c1.143,0,2.055,0.319,2.736,0.955c0.684,0.639,1.023,1.354,1.023,2.146v6.794h4.881c0.748,0,1.406,0.275,1.982,0.823
			c0.568,0.553,0.855,1.266,0.855,2.147c0,0.967-0.287,1.726-0.855,2.278c-0.576,0.545-1.234,0.824-1.982,0.824h-4.881v15.964
			c0,1.846,0.242,3.101,0.727,3.761c0.482,0.66,1.186,0.989,2.109,0.989c0.881,0,1.629-0.078,2.246-0.23
			c0.615-0.153,1.318-0.233,2.109-0.233c1.014,0,1.748,0.274,2.211,0.824c0.459,0.553,0.693,1.312,0.693,2.281
			c0,0.833-0.223,1.514-0.66,2.044c-0.441,0.526-1.023,0.955-1.752,1.283c-0.725,0.329-1.562,0.562-2.504,0.693
			c-0.945,0.134-1.949,0.198-3.002,0.198c-3.432,0-5.938-0.892-7.52-2.673c-1.588-1.78-2.377-4.849-2.377-9.199V32.395h-2.639
			c-0.75,0-1.408-0.279-1.98-0.824c-0.572-0.553-0.857-1.312-0.857-2.278c0-0.882,0.285-1.595,0.857-2.147
			c0.572-0.548,1.23-0.823,1.98-0.823H235.667z"/>
		<path fill="#38BADD" d="M290.952,56.868c0,0.792-0.373,1.507-1.121,2.146c-0.748,0.635-1.691,0.955-2.836,0.955
			s-2.07-0.32-2.773-0.955c-0.703-0.639-1.053-1.354-1.053-2.146V39.846c0-2.111-0.586-3.813-1.752-5.114
			c-1.166-1.293-2.867-1.944-5.111-1.944c-1.938,0-3.555,0.539-4.848,1.615c-1.301,1.08-1.992,2.783-2.08,5.114v17.352
			c0,0.792-0.342,1.507-1.021,2.146c-0.684,0.635-1.594,0.955-2.738,0.955c-1.188,0-2.146-0.32-2.871-0.955
			c-0.725-0.639-1.084-1.354-1.084-2.146V17.546c0-0.791,0.359-1.503,1.084-2.146c0.725-0.637,1.684-0.955,2.871-0.955
			c1.145,0,2.055,0.318,2.738,0.955c0.68,0.643,1.021,1.354,1.021,2.146v12.34l0.396,0.064c0.789-1.274,1.869-2.319,3.232-3.134
			c1.361-0.815,3.014-1.221,4.947-1.221c2.418,0,4.453,0.388,6.105,1.153c1.648,0.771,2.977,1.805,3.992,3.102
			c1.01,1.301,1.746,2.804,2.207,4.521c0.463,1.715,0.693,3.516,0.693,5.41V56.868z"/>
		<path fill="#38BADD" d="M301.046,16.928c0-0.785,0.363-1.495,1.09-2.127c0.725-0.634,1.682-0.95,2.867-0.95
			c1.143,0,2.057,0.316,2.738,0.95c0.684,0.632,1.021,1.342,1.021,2.127v1.567c0,0.786-0.338,1.495-1.021,2.129
			c-0.682,0.631-1.596,0.947-2.738,0.947c-1.186,0-2.143-0.316-2.867-0.947c-0.727-0.634-1.09-1.343-1.09-2.129V16.928z
			 M301.046,28.762c0-0.791,0.363-1.504,1.09-2.144c0.725-0.635,1.682-0.955,2.867-0.955c1.143,0,2.057,0.32,2.738,0.955
			c0.684,0.64,1.021,1.353,1.021,2.144v28.106c0,0.792-0.338,1.507-1.021,2.146c-0.682,0.635-1.596,0.955-2.738,0.955
			c-1.186,0-2.143-0.32-2.867-0.955c-0.727-0.639-1.09-1.354-1.09-2.146V28.762z"/>
		<path fill="#38BADD" d="M333.306,25.663c2.42,0,4.543,0.329,6.367,0.987c1.826,0.662,3.354,1.597,4.586,2.805
			c1.23,1.211,2.154,2.673,2.77,4.389c0.617,1.715,0.924,3.606,0.924,5.673v17.352c0,0.792-0.373,1.507-1.121,2.146
			c-0.748,0.635-1.691,0.955-2.838,0.955c-1.141,0-2.066-0.32-2.768-0.955c-0.707-0.639-1.057-1.354-1.057-2.146V39.912
			c0-2.418-0.648-4.199-1.947-5.344c-1.295-1.144-2.936-1.716-4.916-1.716c-1.977,0-3.629,0.572-4.947,1.716
			c-1.318,1.145-1.979,2.926-1.979,5.344v16.956c0,0.792-0.344,1.507-1.023,2.146c-0.684,0.635-1.594,0.955-2.738,0.955
			c-1.188,0-2.143-0.32-2.871-0.955c-0.723-0.639-1.086-1.354-1.086-2.146v-16.69c0-2.066,0.309-3.993,0.924-5.775
			c0.615-1.778,1.539-3.319,2.771-4.618c1.23-1.293,2.758-2.308,4.584-3.035C328.765,26.024,330.89,25.663,333.306,25.663z"/>
		<path fill="#38BADD" d="M385.427,59.308c0,2.462-0.396,4.587-1.189,6.368c-0.787,1.78-1.855,3.256-3.195,4.423
			c-1.344,1.162-2.895,2.029-4.65,2.605c-1.764,0.568-3.611,0.855-5.543,0.855c-1.674,0-3.17-0.09-4.488-0.265
			s-2.266-0.37-2.836-0.591c-1.455-0.926-2.18-2.048-2.18-3.367c0-0.967,0.297-1.737,0.893-2.309
			c0.592-0.572,1.506-0.858,2.736-0.858c0.482,0,1.18,0.088,2.08,0.265c0.9,0.175,2.164,0.265,3.795,0.265
			c1.01,0,1.932-0.099,2.768-0.297c0.838-0.198,1.562-0.572,2.18-1.125c0.617-0.549,1.098-1.293,1.451-2.242
			c0.35-0.945,0.527-2.185,0.527-3.728v-3.233l-0.262-0.129c-0.707,1.188-1.729,2.154-3.07,2.902s-3.111,1.121-5.309,1.121
			c-4.137,0-7.326-1.284-9.566-3.857c-2.244-2.575-3.367-6.103-3.367-10.594v-3.891c0-2.064,0.318-4.065,0.957-6.004
			c0.637-1.933,1.594-3.639,2.869-5.111s2.873-2.66,4.781-3.563c1.914-0.901,4.168-1.353,6.766-1.353
			c2.418,0,4.508,0.32,6.268,0.955c1.76,0.64,3.201,1.519,4.32,2.64c1.123,1.123,1.945,2.453,2.477,3.991
			c0.523,1.541,0.789,3.191,0.789,4.952V59.308z M370.849,52.779c1.846,0,3.439-0.541,4.781-1.617
			c1.342-1.078,2.057-2.76,2.145-5.046v-8.247c0-1.717-0.539-2.991-1.615-3.827c-1.08-0.838-2.607-1.255-4.586-1.255
			c-1.146,0-2.178,0.232-3.102,0.696c-0.922,0.46-1.715,1.076-2.373,1.846c-0.662,0.771-1.18,1.67-1.553,2.701
			c-0.375,1.035-0.559,2.147-0.559,3.337v4.417C363.987,50.447,366.271,52.779,370.849,52.779z"/>
		<path fill="#38BADD" d="M393.675,55.219c-0.133-0.262-0.223-0.594-0.266-0.99c-0.045-0.396-0.014-0.792,0.1-1.185
			c0.107-0.399,0.285-0.769,0.525-1.124c0.242-0.352,0.586-0.616,1.021-0.792c0.621-0.263,1.156-0.397,1.621-0.397
			c0.459,0,0.865,0.081,1.221,0.233c0.352,0.153,0.678,0.352,0.986,0.591c0.311,0.247,0.617,0.477,0.926,0.694
			c1.275,0.97,3.273,1.453,6.004,1.453c1.406,0,2.541-0.307,3.396-0.923c0.855-0.617,1.287-1.429,1.287-2.444
			c0-1.008-0.396-1.811-1.188-2.404c-0.793-0.598-1.791-1.103-3.004-1.521c-1.209-0.414-2.506-0.833-3.889-1.252
			c-1.387-0.417-2.684-0.99-3.895-1.715s-2.211-1.661-3.002-2.805c-0.789-1.144-1.189-2.684-1.189-4.616
			c0-3.077,1.08-5.576,3.236-7.489c2.154-1.914,5.121-2.869,8.906-2.869c1.668,0,3.123,0.14,4.352,0.428
			c1.234,0.288,2.256,0.626,3.07,1.023c0.814,0.395,1.449,0.824,1.912,1.287c0.465,0.46,0.781,0.891,0.957,1.283
			c0.307,0.617,0.432,1.333,0.363,2.146c-0.066,0.814-0.408,1.44-1.021,1.879c-0.883,0.574-1.695,0.76-2.443,0.562
			c-0.748-0.197-1.428-0.469-2.045-0.823c-0.354-0.177-0.912-0.429-1.682-0.76c-0.771-0.331-1.926-0.497-3.463-0.497
			c-1.41,0-2.477,0.343-3.201,1.023c-0.725,0.683-1.09,1.529-1.09,2.543c0,0.836,0.387,1.485,1.156,1.945
			c0.77,0.463,1.734,0.882,2.902,1.255c1.164,0.374,2.434,0.769,3.793,1.185c1.363,0.419,2.629,1.013,3.795,1.783
			c1.166,0.769,2.135,1.791,2.904,3.065c0.768,1.277,1.152,2.926,1.152,4.951c0,3.076-1.076,5.52-3.232,7.321
			c-2.152,1.805-5.102,2.705-8.84,2.705c-1.365,0-2.695-0.121-3.99-0.364c-1.301-0.239-2.486-0.58-3.566-1.021
			c-1.076-0.438-2.008-0.946-2.801-1.518C394.663,56.496,394.069,55.881,393.675,55.219z"/>
	</g>
</g>
</svg>
