<?xml version="1.0" encoding="utf-8"?>
<!-- Generator: Adobe Illustrator 16.0.4, SVG Export Plug-In . SVG Version: 6.00 Build 0)  -->
<!DOCTYPE svg PUBLIC "-//W3C//DTD SVG 1.1//EN" "http://www.w3.org/Graphics/SVG/1.1/DTD/svg11.dtd">
<svg version="1.1" id="Ebene_1" xmlns="http://www.w3.org/2000/svg" xmlns:xlink="http://www.w3.org/1999/xlink" x="0px" y="0px"
	 width="72px" height="72px" viewBox="0 0 72 72" enable-background="new 0 0 72 72" xml:space="preserve">
<g id="Ebene_1_1_">
	<g>
		<g>
			<g>
				<g>
					<g>
						<g>
							<g>
								
									<polyline fill="none" stroke="#38BADD" stroke-width="2.617" stroke-linecap="round" stroke-linejoin="round" stroke-miterlimit="10" points="
									31.372,23.399 18.488,27.718 14.73,33.657 24.054,35.154 								"/>
								
									<path fill="none" stroke="#38BADD" stroke-width="2.617" stroke-linecap="round" stroke-linejoin="round" stroke-miterlimit="10" d="
									M55.564,3.915c0,0-13.605,2.947-23.719,18.927c-10.112,15.98-9.78,15.457-9.78,15.457l8.382,5.305l8.383,5.309
									c0,0-0.33,0.521,9.781-15.456C58.725,17.473,55.564,3.915,55.564,3.915z"/>
								
									<polyline fill="none" stroke="#38BADD" stroke-width="2.617" stroke-linecap="round" stroke-linejoin="round" stroke-miterlimit="10" points="
									48.312,34.119 49.924,47.613 46.166,53.551 40.82,45.766 								"/>
								
									<path fill="none" stroke="#38BADD" stroke-width="2.617" stroke-linecap="round" stroke-linejoin="round" stroke-miterlimit="10" d="
									M28.126,47.271c-1.394-0.883-6.205-2.949-9.08,1.592c-2.873,4.541-2.967,17.443-2.967,17.443S27.7,60.699,30.573,56.158
									C33.448,51.617,29.52,48.152,28.126,47.271z"/>
								
									<path fill="none" stroke="#38BADD" stroke-width="2.617" stroke-linecap="round" stroke-linejoin="round" stroke-miterlimit="10" d="
									M27.215,48.713c-1.376-0.871-3.744-0.463-5.368,2.105c-1.625,2.562,0.062,6.273,0.062,6.273s4.075-0.062,5.7-2.631
									C29.234,51.898,28.59,49.582,27.215,48.713z"/>
								
									<circle fill="none" stroke="#38BADD" stroke-width="2.617" stroke-linecap="round" stroke-linejoin="round" stroke-miterlimit="10" cx="44.374" cy="21.598" r="4.03"/>
							</g>
						</g>
					</g>
				</g>
			</g>
		</g>
	</g>
</g>
</svg>
