<?xml version="1.0" encoding="utf-8"?>
<!-- Generator: Adobe Illustrator 16.0.4, SVG Export Plug-In . SVG Version: 6.00 Build 0)  -->
<!DOCTYPE svg PUBLIC "-//W3C//DTD SVG 1.1//EN" "http://www.w3.org/Graphics/SVG/1.1/DTD/svg11.dtd">
<svg version="1.1" id="Ebene_1" xmlns="http://www.w3.org/2000/svg" xmlns:xlink="http://www.w3.org/1999/xlink" x="0px" y="0px"
	 width="112px" height="112px" viewBox="0 0 112 112" enable-background="new 0 0 112 112" xml:space="preserve">
<g>
	<g>
		<g>
			<g>
				<g>
					
						<polyline fill="none" stroke="#FFFFFF" stroke-width="4" stroke-linecap="round" stroke-linejoin="round" stroke-miterlimit="10" points="
						52.546,35.797 31.767,42.763 25.706,52.34 40.745,54.756 					"/>
					
						<path fill="none" stroke="#FFFFFF" stroke-width="4" stroke-linecap="round" stroke-linejoin="round" stroke-miterlimit="10" d="
						M91.564,4.373c0,0-21.942,4.753-38.253,30.525S37.536,59.826,37.536,59.826l13.52,8.557l13.521,8.557
						c0,0-0.534,0.848,15.774-24.929C96.662,26.238,91.564,4.373,91.564,4.373z"/>
					
						<polyline fill="none" stroke="#FFFFFF" stroke-width="4" stroke-linecap="round" stroke-linejoin="round" stroke-miterlimit="10" points="
						79.867,53.087 82.467,74.85 76.406,84.426 67.785,71.868 					"/>
					
						<path fill="none" stroke="#E81C5B" stroke-width="4.0152" stroke-linecap="round" stroke-linejoin="round" stroke-miterlimit="10" d="
						M47.312,74.298c-2.247-1.422-10.008-4.756-14.644,2.568C28.034,84.189,27.883,105,27.883,105s18.742-9.046,23.377-16.369
						C55.895,81.307,49.56,75.721,47.312,74.298z"/>
					
						<path fill="none" stroke="#E81C5B" stroke-width="4.0152" stroke-linecap="round" stroke-linejoin="round" stroke-miterlimit="10" d="
						M45.843,76.621c-2.219-1.403-6.038-0.744-8.658,3.396c-2.621,4.141,0.102,10.123,0.102,10.123s6.572-0.104,9.193-4.242
						C49.1,81.759,48.061,78.025,45.843,76.621z"/>
					
						<circle fill="none" stroke="#FFFFFF" stroke-width="4" stroke-linecap="round" stroke-linejoin="round" stroke-miterlimit="10" cx="73.516" cy="32.892" r="6.5"/>
				</g>
			</g>
		</g>
	</g>
</g>
</svg>
