<?xml version="1.0" encoding="utf-8"?>
<!-- Generator: Adobe Illustrator 16.0.4, SVG Export Plug-In . SVG Version: 6.00 Build 0)  -->
<!DOCTYPE svg PUBLIC "-//W3C//DTD SVG 1.1//EN" "http://www.w3.org/Graphics/SVG/1.1/DTD/svg11.dtd">
<svg version="1.1" id="Ebene_1" xmlns="http://www.w3.org/2000/svg" xmlns:xlink="http://www.w3.org/1999/xlink" x="0px" y="0px"
	 width="72px" height="72px" viewBox="0 0 72 72" enable-background="new 0 0 72 72" xml:space="preserve">
<g>
	<path fill="#38BADD" d="M51.021,57.975H22.146c-2.238,0-4.059-1.819-4.059-4.059V10.083c0-2.238,1.821-4.059,4.059-4.059h28.875
		c2.237,0,4.059,1.821,4.059,4.059v43.833C55.079,56.154,53.259,57.975,51.021,57.975z M22.146,8.642
		c-0.795,0-1.441,0.646-1.441,1.441v43.833c0,0.795,0.646,1.441,1.441,1.441h28.875c0.795,0,1.44-0.646,1.44-1.441V10.083
		c0-0.795-0.646-1.441-1.44-1.441H22.146z"/>
</g>
<g>
	<path fill="#38BADD" d="M52.462,48.75v11.166c0,0.795-0.646,1.441-1.44,1.441H22.146c-0.795,0-1.441-0.646-1.441-1.441V48.75
		c-0.874,0-1.743,0-2.617,0v11.166c0,2.238,1.821,4.059,4.059,4.059h28.875c2.238,0,4.06-1.819,4.06-4.059V48.75
		C54.207,48.75,53.331,48.75,52.462,48.75z"/>
</g>
<g>
	<path fill="#38BADD" d="M61.85,24.922c-0.724,0-1.31-0.586-1.31-1.309V18.84H53.77c-0.723,0-1.309-0.586-1.309-1.309
		c0-0.723,0.586-1.309,1.309-1.309h8.078c0.723,0,1.31,0.586,1.31,1.309v6.082C63.157,24.336,62.57,24.922,61.85,24.922z"/>
</g>
<g>
	<path fill="#38BADD" d="M61.85,40.391c-0.724,0-1.31-0.586-1.31-1.309v-4.773H53.77c-0.723,0-1.309-0.586-1.309-1.309
		s0.586-1.309,1.309-1.309h8.078c0.723,0,1.31,0.586,1.31,1.309v6.082C63.157,39.805,62.57,40.391,61.85,40.391z"/>
</g>
<g>
	<path fill="#38BADD" d="M61.85,55.859c-0.724,0-1.31-0.586-1.31-1.309v-4.773H53.77c-0.723,0-1.309-0.586-1.309-1.31
		c0-0.723,0.586-1.309,1.309-1.309h8.078c0.723,0,1.31,0.586,1.31,1.309v6.083C63.157,55.273,62.57,55.859,61.85,55.859z"/>
</g>
<g>
	<path fill="#38BADD" d="M11.317,24.922c-0.723,0-1.309-0.586-1.309-1.309v-6.082c0-0.723,0.586-1.309,1.309-1.309h8.078
		c0.723,0,1.309,0.586,1.309,1.309c0,0.723-0.586,1.309-1.309,1.309h-6.77v4.773C12.626,24.336,12.04,24.922,11.317,24.922z"/>
</g>
<g>
	<path fill="#38BADD" d="M11.317,40.391c-0.723,0-1.309-0.586-1.309-1.309V33c0-0.723,0.586-1.309,1.309-1.309h8.078
		c0.723,0,1.309,0.586,1.309,1.309s-0.586,1.309-1.309,1.309h-6.77v4.773C12.626,39.805,12.04,40.391,11.317,40.391z"/>
</g>
<g>
	<path fill="#38BADD" d="M11.317,55.859c-0.723,0-1.309-0.586-1.309-1.309v-6.083c0-0.723,0.586-1.309,1.309-1.309h8.078
		c0.723,0,1.309,0.586,1.309,1.309c0,0.724-0.586,1.31-1.309,1.31h-6.77v4.773C12.626,55.273,12.04,55.859,11.317,55.859z"/>
</g>
<g>
	<path fill="#38BADD" d="M26.797,37.825V28.52c0-0.483,0.11-0.846,0.331-1.087c0.22-0.242,0.504-0.363,0.854-0.363
		c0.359,0,0.651,0.12,0.874,0.359c0.223,0.239,0.335,0.603,0.335,1.091v9.306c0,0.488-0.112,0.854-0.335,1.096
		s-0.515,0.362-0.874,0.362c-0.344,0-0.627-0.122-0.85-0.366C26.908,38.672,26.797,38.309,26.797,37.825z"/>
	<path fill="#38BADD" d="M34.829,28.705l-2.256,9.289c-0.075,0.307-0.141,0.548-0.197,0.725c-0.057,0.178-0.143,0.316-0.258,0.416
		c-0.115,0.1-0.283,0.148-0.503,0.148c-0.548,0-0.822-0.236-0.822-0.709c0-0.123,0.054-0.432,0.161-0.926l2.248-9.291
		c0.118-0.494,0.23-0.832,0.338-1.015c0.107-0.182,0.317-0.274,0.629-0.274c0.269,0,0.474,0.064,0.616,0.193
		c0.142,0.129,0.214,0.306,0.214,0.532C34.999,27.961,34.942,28.265,34.829,28.705z"/>
	<path fill="#38BADD" d="M41.693,27.069c1.225,0,2.275,0.249,3.154,0.746c0.877,0.497,1.543,1.203,1.993,2.119
		c0.451,0.916,0.677,1.992,0.677,3.227c0,0.914-0.123,1.743-0.369,2.49c-0.248,0.746-0.619,1.393-1.112,1.941
		c-0.494,0.547-1.103,0.967-1.82,1.256c-0.721,0.291-1.545,0.437-2.474,0.437c-0.924,0-1.751-0.148-2.48-0.447
		c-0.73-0.298-1.342-0.718-1.83-1.261c-0.488-0.542-0.856-1.194-1.106-1.958c-0.25-0.762-0.375-1.587-0.375-2.473
		c0-0.907,0.131-1.74,0.391-2.498c0.261-0.757,0.638-1.402,1.132-1.934c0.494-0.532,1.096-0.938,1.805-1.22
		C39.984,27.21,40.791,27.069,41.693,27.069z M45.094,33.144c0-0.864-0.14-1.614-0.419-2.248c-0.278-0.634-0.679-1.113-1.196-1.438
		c-0.519-0.325-1.112-0.488-1.785-0.488c-0.478,0-0.92,0.09-1.324,0.271c-0.405,0.18-0.756,0.442-1.047,0.786
		c-0.293,0.344-0.524,0.783-0.693,1.317c-0.169,0.534-0.254,1.135-0.254,1.8c0,0.672,0.085,1.279,0.254,1.821
		c0.169,0.543,0.408,0.992,0.717,1.35c0.311,0.357,0.664,0.625,1.063,0.802s0.84,0.266,1.317,0.266c0.611,0,1.174-0.153,1.688-0.459
		c0.513-0.306,0.921-0.778,1.225-1.418C44.941,34.865,45.094,34.079,45.094,33.144z"/>
</g>
</svg>
