<?xml version="1.0" encoding="utf-8"?>
<!-- Generator: Adobe Illustrator 16.0.4, SVG Export Plug-In . SVG Version: 6.00 Build 0)  -->
<!DOCTYPE svg PUBLIC "-//W3C//DTD SVG 1.1//EN" "http://www.w3.org/Graphics/SVG/1.1/DTD/svg11.dtd">
<svg version="1.1" id="Ebene_1" xmlns="http://www.w3.org/2000/svg" xmlns:xlink="http://www.w3.org/1999/xlink" x="0px" y="0px"
	 width="40px" height="40px" viewBox="0 0 40 40" enable-background="new 0 0 40 40" xml:space="preserve">
<g id="twitter_5_">
	<g id="twitter_6_">
		<g>
			<g>
				<g id="twitter_7_">
					<g>
						<g>
							<g>
								<path fill="#38BADD" d="M13.819,34.133c-4.018,0-7.93-1.145-11.314-3.314c-0.514-0.326-0.733-0.973-0.528-1.547
									c0.203-0.576,0.785-0.928,1.386-0.869c0.521,0.062,1.026,0.094,1.501,0.094c1.828,0,3.589-0.385,5.206-1.115
									c-2.019-0.953-3.614-2.711-4.329-4.936c-0.135-0.415-0.053-0.865,0.212-1.209c-1.67-1.521-2.702-3.71-2.702-6.092
									c0-0.467,0.247-0.939,0.648-1.177c0.089-0.05,0.179-0.093,0.272-0.126c-0.561-1.124-0.863-2.379-0.863-3.678
									c0-1.458,0.387-2.888,1.118-4.139c0.218-0.376,0.603-0.617,1.034-0.65c0.425-0.036,0.848,0.145,1.121,0.481
									c2.947,3.616,7.163,5.967,11.743,6.593c-0.002-0.037-0.002-0.077-0.002-0.114c0-4.539,3.692-8.23,8.229-8.23
									c2.006,0,3.955,0.743,5.452,2.059c1.168-0.294,2.282-0.753,3.317-1.368c0.471-0.282,1.062-0.24,1.492,0.102
									c0.428,0.339,0.6,0.91,0.433,1.43c-0.112,0.35-0.248,0.692-0.405,1.021c0.403-0.025,0.814,0.139,1.088,0.464
									c0.379,0.446,0.415,1.09,0.092,1.576c-0.89,1.338-1.967,2.513-3.211,3.498c0.002,0.085,0.002,0.171,0.002,0.255
									C34.812,23.457,26.959,34.133,13.819,34.133z M8.455,30.701c1.729,0.529,3.533,0.801,5.364,0.801
									c11.494,0,18.361-9.336,18.361-18.364c0-0.27-0.003-0.543-0.021-0.812c-0.026-0.451,0.18-0.885,0.545-1.146
									c0.055-0.04,0.108-0.08,0.161-0.12c-0.521-0.033-0.985-0.377-1.158-0.888c-0.158-0.459-0.045-0.959,0.27-1.305
									c-0.043,0.007-0.082,0.016-0.123,0.023c-0.453,0.086-0.897-0.06-1.211-0.389c-1.058-1.123-2.549-1.769-4.092-1.769
									c-3.087,0-5.599,2.513-5.599,5.601c0,0.444,0.048,0.872,0.144,1.27c0.096,0.404-0.004,0.827-0.27,1.146
									c-0.266,0.317-0.667,0.491-1.077,0.473c-5.176-0.26-10.067-2.442-13.722-6.066c-0.059,0.33-0.09,0.666-0.09,1.004
									c0,1.878,0.931,3.622,2.49,4.664c0.487,0.326,0.7,0.937,0.521,1.495c-0.179,0.56-0.703,0.951-1.295,0.912
									c-0.479-0.015-0.953-0.073-1.42-0.17c0.663,1.809,2.203,3.183,4.137,3.572c0.599,0.121,1.035,0.635,1.055,1.244
									c0.021,0.607-0.377,1.152-0.965,1.312c-0.411,0.115-0.831,0.193-1.254,0.244c1.021,1.271,2.572,2.064,4.27,2.098
									c0.555,0.01,1.046,0.369,1.224,0.896c0.178,0.527,0.003,1.109-0.436,1.453C12.526,29.246,10.558,30.197,8.455,30.701z"/>
							</g>
						</g>
					</g>
				</g>
			</g>
		</g>
	</g>
</g>
</svg>
