<?xml version="1.0" encoding="utf-8"?>
<!-- Generator: Adobe Illustrator 16.0.4, SVG Export Plug-In . SVG Version: 6.00 Build 0)  -->
<!DOCTYPE svg PUBLIC "-//W3C//DTD SVG 1.1//EN" "http://www.w3.org/Graphics/SVG/1.1/DTD/svg11.dtd">
<svg version="1.1" id="Ebene_1" xmlns="http://www.w3.org/2000/svg" xmlns:xlink="http://www.w3.org/1999/xlink" x="0px" y="0px"
	 width="40px" height="40px" viewBox="0 0 40 40" enable-background="new 0 0 40 40" xml:space="preserve">
<g>
	<g>
		<g>
			<g>
				<g>
					<path fill="#38BADD" d="M24.602,13.153c0,2.542-2.061,6.051-4.603,6.051s-4.603-3.508-4.603-6.051
						c0-2.541,2.061-4.602,4.603-4.602S24.602,10.612,24.602,13.153z"/>
					<path fill="#38BADD" d="M23.479,18.946c-0.929,1.193-2.146,2.037-3.479,2.037s-2.551-0.84-3.479-2.037
						c-2.97,1.212-5.039,3.74-5.039,5.46c0,2.336,3.813,4.229,8.518,4.229s8.52-1.896,8.52-4.229
						C28.518,22.686,26.448,20.158,23.479,18.946z"/>
				</g>
			</g>
		</g>
	</g>
</g>
</svg>
