<?xml version="1.0" encoding="utf-8"?>
<!-- Generator: Adobe Illustrator 16.0.4, SVG Export Plug-In . SVG Version: 6.00 Build 0)  -->
<!DOCTYPE svg PUBLIC "-//W3C//DTD SVG 1.1//EN" "http://www.w3.org/Graphics/SVG/1.1/DTD/svg11.dtd">
<svg version="1.1" id="Ebene_1" xmlns="http://www.w3.org/2000/svg" xmlns:xlink="http://www.w3.org/1999/xlink" x="0px" y="0px"
	 width="72px" height="72px" viewBox="0 0 72 72" enable-background="new 0 0 72 72" xml:space="preserve">
<path fill="none" stroke="#38BADD" stroke-width="4.0152" stroke-linecap="round" stroke-linejoin="round" stroke-miterlimit="10" d="
	M47.523,20.563c0,6.5-5.27,15.472-11.769,15.472s-11.769-8.969-11.769-15.472c0-6.498,5.27-11.765,11.769-11.765
	S47.523,14.066,47.523,20.563z"/>
<path fill="none" stroke="#38BADD" stroke-width="4.0152" stroke-linecap="round" stroke-linejoin="round" stroke-miterlimit="10" d="
	M44.65,39.393c-2.373,3.051-5.483,5.207-8.896,5.207c-3.409,0-6.522-2.156-8.896-5.207c-7.591,3.1-12.882,9.559-12.882,13.961
	c0,5.974,9.75,10.816,21.778,10.816c12.029,0,21.78-4.844,21.78-10.816C57.536,48.95,52.245,42.491,44.65,39.393z"/>
</svg>
